<?xml version="1.0" standalone="no"?><!DOCTYPE svg PUBLIC "-//W3C//DTD SVG 1.1//EN" "http://www.w3.org/Graphics/SVG/1.1/DTD/svg11.dtd"><svg t="1537497553631" class="icon" style="" viewBox="0 0 1024 1024" version="1.1" xmlns="http://www.w3.org/2000/svg" p-id="4568" xmlns:xlink="http://www.w3.org/1999/xlink" width="200" height="200"><defs><style type="text/css"></style></defs><path d="M353 496.4c-10.7 8.7-10.7 25 0 33.6l258.5 209.4c15.2 12.3 39.9 12.3 55.1 0 7.6-6.2 11.4-14.2 11.4-22.3s-3.8-16.2-11.4-22.3L442.4 513.2l-55.1-44.6-34.3 27.8z" fill="#707070" p-id="4569"></path><path d="M353 530l34.3 27.8 55.1-44.6 230.3-186.5c4.5-3.7 7.7-11.4 6.7-17.2-5.3-32.6-46.3-40.1-68-22.5L387.3 468.6 353 496.4c-10.7 8.7-10.7 25 0 33.6z" fill="#707070" p-id="4570"></path><path d="M353 530l34.3 27.8v-89.3L353 496.4c-10.7 8.7-10.7 25 0 33.6z" fill="#707070" p-id="4571"></path></svg>