<?xml version="1.0" standalone="no"?><!DOCTYPE svg PUBLIC "-//W3C//DTD SVG 1.1//EN" "http://www.w3.org/Graphics/SVG/1.1/DTD/svg11.dtd"><svg t="1537497621917" class="icon" style="" viewBox="0 0 1024 1024" version="1.1" xmlns="http://www.w3.org/2000/svg" p-id="4893" xmlns:xlink="http://www.w3.org/1999/xlink" width="200" height="200"><defs><style type="text/css"></style></defs><path d="M671.6 496.4c10.7 8.7 10.7 25 0 33.6L413.1 739.4c-15.2 12.3-39.9 12.3-55.1 0-7.6-6.2-11.4-14.2-11.4-22.3s3.8-16.2 11.4-22.3l224.2-181.6 55.1-44.6 34.3 27.8z" fill="#515151" p-id="4894"></path><path d="M671.6 530l-34.3 27.8-55.1-44.6-230.4-186.5c-4.5-3.7-7.7-11.4-6.7-17.2 5.3-32.6 46.3-40.1 68-22.5l224.2 181.6 34.3 27.8c10.7 8.7 10.7 25 0 33.6z" fill="#515151" p-id="4895"></path><path d="M671.6 530l-34.3 27.8v-89.3l34.3 27.8c10.7 8.8 10.7 25.1 0 33.7z" fill="#515151" p-id="4896"></path></svg>